<svg version="1" xmlns="http://www.w3.org/2000/svg" width="682.667" height="682.667" viewBox="0 0 512.000000 512.000000"><path d="M236.5 1.6c-1.6.2-7.3.9-12.5 1.5-42.8 4.8-85.7 22.3-122.5 49.8-12.9 9.6-39 35.7-48.6 48.6C25.5 138.2 9.3 177.8 2.8 224c-1.7 12.5-1.7 51.5 0 64 6.5 46.2 22.7 85.8 50.1 122.5 9.6 12.9 35.7 39 48.6 48.6 36.7 27.4 76.3 43.6 122.5 50.1 12.5 1.7 51.5 1.7 64-.1 46.5-6.5 85.5-22.5 122.8-50.3 12.6-9.4 38.7-35.5 48.3-48.3 27.4-36.7 43.6-76.3 50.1-122.5 1.7-12.5 1.7-51.5 0-64-6.5-46.2-22.7-85.8-50.1-122.5-9.6-12.9-35.7-39-48.6-48.6-35.9-26.8-74.3-42.8-119-49.5-9.5-1.4-48.6-2.7-55-1.8zM245 118c2.1 1.1 5.1 3.5 6.5 5.4 2.8 3.7 10.2 21.4 13.6 32.8l2.1 6.7 14.2-.6c10.9-.5 16.6-.2 24.4 1.1 34.3 5.8 61.9 24.8 75.4 52.1 7.1 14.3 9.8 26 9.8 43.1 0 13.2-2.7 24-9.1 36.8-5.2 10.4-9.5 16.1-18.3 24.3-12.5 11.6-25.2 17.9-47.6 23.7-15.7 4-26.1 5.6-36.8 5.6h-7.7l-3.9 9.2c-5.1 12.3-13.1 27.2-17 31.6-3.8 4.4-8.1 6.2-14.6 6.2-6.7 0-10.9-1.9-15.2-6.9-4.1-4.8-6.2-11-5.2-15.4.3-1.8 4.2-10.5 8.7-19.5 4.4-8.9 7.8-16.4 7.6-16.5-.2-.2-3.7-2.2-7.7-4.6-13.8-8.1-27.3-20.2-29.8-26.8-5.3-13.9 5-28 19.8-27.1 6.2.5 8.4 1.7 19.8 11.3 3.6 3 6.8 5.5 7.1 5.5 1.5 0 2.1-4.4 2.6-19.5.3-9.3.1-21.2-.6-28.5-1.2-12.5-4-33.2-4.6-33.8-.8-.8-15.1 7.3-22.1 12.6-20.6 15.6-36.2 37.2-43 59.7-2.6 8.4-2.8 10.3-2.9 29-.1 11.2-.6 21.1-1.2 22.5-1.3 3.1-5.9 7.7-9.3 9.5-9.1 4.6-21.7.8-26.7-8.3-2.5-4.3-6.4-23.6-9.4-45.5-3-22-3.7-66.1-1.5-89.4 4.3-44.4 7.5-52.5 22-55.5 6.7-1.4 12.5.5 17.8 5.8 5.9 5.9 6.5 10 4 28.3-1.2 8.6-2.4 18.7-2.7 22.6-.3 3.8-.8 9.2-1.1 11.9l-.5 4.9 11.8-11.9c14-14.1 26.6-23.3 42.3-31.1 6.3-3.1 11.7-5.8 11.9-5.9.5-.4-2.8-9.8-7.6-21.9-6.5-16.1-6.1-22.6 1.9-30.2 1.8-1.8 4.4-3.6 5.8-4.2 4.3-1.7 12.7-1.3 17 .9z"/><path d="M278 203.9c0 .5.9 6.2 2 12.7 5.4 31.4 6.5 71.8 2.5 89.1-.5 2.2-.4 2.3 5.7 1.7 10.6-1 27.6-5.4 35.1-9.2 14.1-7 26-22.4 27.4-35.3 1.2-11.9-3.6-28.1-11.3-38.1-6.2-8-22-17.3-34.4-20.2-7-1.7-27-2.2-27-.7z"/></svg>