<svg id="Layer_1" data-name="Layer 1" xmlns="http://www.w3.org/2000/svg" viewBox="0 0 90 106.85"><defs><style>.logo-dark-fill{fill:#141414;}</style></defs><title>apple</title><path class="logo-dark-fill" d="M88.11,83.34a58.09,58.09,0,0,1-5.74,10.33,52.47,52.47,0,0,1-7.4,8.94,14.35,14.35,0,0,1-9.51,4.19,23.84,23.84,0,0,1-8.78-2.1,25.21,25.21,0,0,0-9.46-2.09,26.06,26.06,0,0,0-9.73,2.09,26.17,26.17,0,0,1-8.4,2.21q-4.88.21-9.73-4.3a55.1,55.1,0,0,1-7.74-9.26A64,64,0,0,1,3.44,77.1,59.53,59.53,0,0,1,0,57.72Q0,47,4.65,39.21a27.26,27.26,0,0,1,9.73-9.84,26.18,26.18,0,0,1,13.16-3.71c2.58,0,6,.8,10.18,2.37s6.89,2.37,8.07,2.37c0.88,0,3.88-.93,8.95-2.8Q61.93,25,66.9,25.44q13.48,1.09,20.23,10.65Q75.07,43.4,75.19,56.54a22.56,22.56,0,0,0,7.41,17A24.34,24.34,0,0,0,90,78.39q-0.89,2.58-1.89,5h0ZM67.5,2.21a22.79,22.79,0,0,1-5.84,15c-4.7,5.49-10.38,8.66-16.54,8.16a16.63,16.63,0,0,1-.12-2,23.42,23.42,0,0,1,6.2-15.11,23.87,23.87,0,0,1,7.55-5.67A22.52,22.52,0,0,1,67.38.08a19.41,19.41,0,0,1,.11,2.14h0Z" transform="translate(0 -0.08)"/></svg>