<svg id="Layer_1" data-name="Layer 1" xmlns="http://www.w3.org/2000/svg" viewBox="0 0 90 105.31"><defs><style>.cls-1{fill:#fff;}.logo-dark-fill{fill:#141414;}</style></defs><title>linux</title><g id="g1768"><path id="path4529" class="cls-1" d="M38.34,8.72L54,10.36,59.92,31,72.68,54.18l4.25,19.29,3.11,1,1.59,3.61,0.32,2.66,2.57,2.77L88,86.14l1.56,2.63-1.27,2.49L75.12,99.37,69.86,104l-6.73.52-4.94-2.92-1.5-5.55L35.47,97.7l-1.79,4.48-4.83,2.57L23,103.88l-5.69-2.57L9.65,99.63,2.11,97.18,0.69,94.89l0.78-2.83,1.36-4L2.49,82.12,2.57,79l1-1.65,3-.9,2.6,0.09L11,76l2.49-3.5,1.45-1.71,10.55-26.3,7-8.76L31.19,21.1l0.55-8.7Z" transform="translate(0 -0.34)"/><path id="path1726" class="logo-dark-fill" d="M44.78,0.34A14.94,14.94,0,0,0,37.55,2a13,13,0,0,0-5.44,5.66,19,19,0,0,0-1.71,7.72c-0.1,2.61.1,5.21,0.25,7.82s0.24,5.42.27,8.13A14.8,14.8,0,0,1,31.09,34c0,0.44,0,.89,0,1.33l0,0.07a17.38,17.38,0,0,1-1.22,2.4l-2.69,3.37c-1,1.25-2,2.5-3,3.75a22.91,22.91,0,0,0-3.3,4.86,36.94,36.94,0,0,0-1.49,4.83,36.55,36.55,0,0,1-2.08,5.35c-0.76,1.6-1.59,3.16-2.42,4.72A11.86,11.86,0,0,0,13.4,68.2a7.33,7.33,0,0,0,.19,3l0,0.12a4.94,4.94,0,0,0-.43.45,10.83,10.83,0,0,0-1.11,1.68,14.14,14.14,0,0,1-.83,1.36,2.89,2.89,0,0,1-.84.81,3,3,0,0,1-1.2.31c-0.49,0-1.07,0-1.72,0a9.29,9.29,0,0,0-2.17.14A4.67,4.67,0,0,0,3,77.26a4.65,4.65,0,0,0-1.29,2.49A8.89,8.89,0,0,0,1.6,82.1c0.1,1.58.34,3,.41,4.44a9.12,9.12,0,0,1-.48,3.81C1.26,91,.74,91.82.36,92.88A5.46,5.46,0,0,0,0,94.67a3.89,3.89,0,0,0,.51,2,4.23,4.23,0,0,0,2,1.69A11.86,11.86,0,0,0,4.42,99c1.22,0.33,2.48.78,3.81,1.18,4.35,1.3,8.72,1.8,12.56,3.31,1.89,0.74,4,1.92,6.56,2A8.44,8.44,0,0,0,32,104.34a8.71,8.71,0,0,0,3.26-3.46,8.87,8.87,0,0,0,.86-2.51,23.05,23.05,0,0,1,3.77-.45c0.39,0,.79,0,1.18,0A22.08,22.08,0,0,0,44.3,98l0.4,0c0.28,0,.57,0,0.85.06,1.92,0.11,3.83.3,5.73,0.59,1.67,0.25,3.33.58,5,1L57,99.8a6.26,6.26,0,0,0,.83,2.2,7.27,7.27,0,0,0,3.43,2.7,10.7,10.7,0,0,0,5.78.85,10.32,10.32,0,0,0,4.46-1.86,30.4,30.4,0,0,0,3.25-2.91,25.17,25.17,0,0,1,3.61-2.88,69.25,69.25,0,0,1,6.34-3.3,11.85,11.85,0,0,0,3.91-2.78,7.29,7.29,0,0,0,1.22-2,1.39,1.39,0,0,0,.06-0.2,3.7,3.7,0,0,0-.38-2.68,4.61,4.61,0,0,0-1.21-1.36c-0.42-.33-0.82-0.57-1.14-0.79-0.68-.46-1.35-1-2.05-1.59a14.72,14.72,0,0,1-1.82-1.7,4.08,4.08,0,0,1-.94-1.78c-0.07-.36-0.07-0.86-0.13-1.51a7.76,7.76,0,0,0-.5-2.22,4.47,4.47,0,0,0-1-1.53,4.72,4.72,0,0,0-2-1.15h0a11.77,11.77,0,0,0,1-2.94,20.47,20.47,0,0,0-.18-7.27,48.94,48.94,0,0,0-2.75-9.56,27.38,27.38,0,0,0-3.42-6.46c-1.44-1.91-3.25-3.52-4.65-5.45-0.74-1-1.37-2.12-2.14-3.11-0.31-.65-0.62-1.29-0.92-1.94-0.93-2-1.77-4.09-2.87-6-0.17-.3-0.35-0.6-0.54-0.89-0.14-1.85-.34-3.7-0.43-5.55-0.19-3.71,0-7.5-.93-11.09A18,18,0,0,0,58.63,8a17,17,0,0,0-4.31-4.64A16.63,16.63,0,0,0,44.78.34Zm5.76,12.47a2.11,2.11,0,0,1,1.14.36,5.1,5.1,0,0,1,2,2.55,1.19,1.19,0,0,1,.09.89,7.17,7.17,0,0,0-2.4-2.84A5.22,5.22,0,0,0,49.6,13a0.56,0.56,0,0,1,.55-0.19h0.38Zm-14.81.8a3.47,3.47,0,0,1,1.3.29,7,7,0,0,1,1.35.81,1.88,1.88,0,0,1,.46.42,4.1,4.1,0,0,1,.6,1.7,6.06,6.06,0,0,0-1.64-2.12,5.55,5.55,0,0,0-1.3-.81,3.54,3.54,0,0,0-1.09-.28h0.32Zm13.14,1.45,0.48,0a4.41,4.41,0,0,1,1.78.68,5.86,5.86,0,0,1,2.26,3,9.09,9.09,0,0,1,.44,3.49A7.38,7.38,0,0,1,53.22,25a4.73,4.73,0,0,1-.72,1.11,9.13,9.13,0,0,0-1.11-.31c-0.48-.12-1-0.26-1.43-0.42a2.55,2.55,0,0,0,.62-0.31,2.86,2.86,0,0,0,.87-1,3.74,3.74,0,0,0,.4-1.28,3.94,3.94,0,0,0-.38-2.3,3.23,3.23,0,0,0-1.72-1.55A2.54,2.54,0,0,0,49,18.76H48.74a2.25,2.25,0,0,0-1,.35,2.71,2.71,0,0,0-.78.76,3.93,3.93,0,0,0-.63,2.07,4.37,4.37,0,0,0,.22,1.62,3.26,3.26,0,0,0,.15.35l-0.83-.45c-0.3-.16-0.6-0.32-0.92-0.46l-0.25-.54a4.86,4.86,0,0,0-.53-0.87,5.88,5.88,0,0,1,.17-3.06,5.7,5.7,0,0,1,2.18-2.7,4.74,4.74,0,0,1,1-.52A3.74,3.74,0,0,1,48.87,15.07Zm-13.36.77a2.75,2.75,0,0,1,1.35.3A4.12,4.12,0,0,1,38,17a6.41,6.41,0,0,1,1.46,2.47A9.33,9.33,0,0,1,39.86,22c-0.19.25-.36,0.51-0.54,0.77l-0.07,0a9.73,9.73,0,0,0-1.12.47,4.91,4.91,0,0,0-.2-2,3.6,3.6,0,0,0-1.06-1.72A2.1,2.1,0,0,0,36,19.12a1.6,1.6,0,0,0-.48,0,1.38,1.38,0,0,0-.47.12,1.65,1.65,0,0,0-.75.75A3.44,3.44,0,0,0,34,21a4.69,4.69,0,0,0,.13,2.35A3.93,3.93,0,0,0,35,24.66a3.1,3.1,0,0,0,.57.49c-0.19.18-.37,0.37-0.54,0.57h0q-0.47.39-.91,0.8a4.36,4.36,0,0,1-.85-1.36,10.91,10.91,0,0,1-.58-3.31,9.51,9.51,0,0,1,.22-3.7,3.77,3.77,0,0,1,1-1.57A2.7,2.7,0,0,1,35.51,15.84Zm13.85,3.8h0.16a1.65,1.65,0,0,1,1.1.72A1.77,1.77,0,0,1,51,21.9a0.28,0.28,0,0,1-.33.14c-0.35-.15-0.29-0.82-0.54-1.14a1.74,1.74,0,0,0-.49-0.38,1.71,1.71,0,0,1-.57-0.26,0.45,0.45,0,0,1-.1-0.42A0.44,0.44,0,0,1,49.36,19.64Zm-13,.27a0.86,0.86,0,0,1,.28.09,1.6,1.6,0,0,1,.74.94,1.4,1.4,0,0,1-.12,1.33,0.26,0.26,0,0,1-.33,0,2.68,2.68,0,0,1-.14-1.08,1.66,1.66,0,0,0-.31-0.47A1.71,1.71,0,0,1,36,20.33a0.35,0.35,0,0,1,0-.36A0.32,0.32,0,0,1,36.34,19.91Zm5.83,3a6.37,6.37,0,0,1,1.71.27l0.44,0.15h0l0.15,0.06h0l0.23,0.1h0l0.66,0.31h0L45.76,24c0.52,0.28,1,.57,1.57.84h0l0.21,0.11,0.71,0.33,0.6,0.25h0a18,18,0,0,0,2.49.81l0.76,0.19,0.24,0.07h0l0.27,0.1a1.57,1.57,0,0,1,.74.6,1,1,0,0,1,.08.18v0l0.09,0.13,0.06,0.11h0a1.73,1.73,0,0,1,.14.45h0a2.66,2.66,0,0,1,0,.77c-0.06.51-.22,1-0.29,1.52a3.7,3.7,0,0,1-.22,1.17l-0.07.13-0.09.12a2.08,2.08,0,0,1-.74.56c-0.37.18-.78,0.28-1.17,0.42C49.38,33.52,48,35,46.42,36a11.27,11.27,0,0,1-2.73,1.2,8.38,8.38,0,0,1-3.19.37,5.4,5.4,0,0,1-2.56-.92,13.06,13.06,0,0,1-2.56-2.91,10.21,10.21,0,0,0-1.25-1.36C34,32.23,33.86,32.12,33.72,32l0.21,0.1h0l0.21,0.13a3.07,3.07,0,0,1,.31.24c0.29,0.26.57,0.58,0.95,0.89a5.71,5.71,0,0,0,3.54,1.16A14.88,14.88,0,0,0,42.47,34a20.94,20.94,0,0,0,2.67-.74,12,12,0,0,0,3.71-2.21,12.39,12.39,0,0,1,1.38-1.15,5.87,5.87,0,0,1,.54-0.29h0l0.14-.07,0.14-.07,0.2-.1,0.44-.24A1.35,1.35,0,0,0,51.9,29a0.87,0.87,0,0,0,.23-0.28h0a0.82,0.82,0,0,0,.09-0.34l-0.27,0a3.14,3.14,0,0,0-.49,0,1.51,1.51,0,0,0-.48.07,1.7,1.7,0,0,0-.55.32c-0.16.14-.31,0.29-0.47,0.44l-0.14.13a15.91,15.91,0,0,1-1.31,1.07A15.62,15.62,0,0,1,45,32.46a15.18,15.18,0,0,1-2.61.72,14.48,14.48,0,0,1-3.38.35,6.52,6.52,0,0,1-3.24-.92c-0.43-.27-0.82-0.61-1.25-0.91l-0.18-.11h0l-0.24-.14h0L34,31.4l-0.21-.1-0.17-.06-0.17-.06h0l-0.3-.06c-0.11,0-.23,0-0.34,0L32.6,31a1.08,1.08,0,0,0,0,.21v0A1.13,1.13,0,0,1,32.46,31a1,1,0,0,1-.1-0.23l0-.05a0.66,0.66,0,0,1,0-.2,2,2,0,0,1,.06-0.41,9,9,0,0,1,.23-1.08,3.44,3.44,0,0,1,.5-0.92l0.21-.28,0.33-.37,0.15-.16h0l0,0,0,0q0.25-.26.53-0.49a8.32,8.32,0,0,1,.75-0.58,9.59,9.59,0,0,1,.83-0.86L36.4,25l0,0,0.48-.36,0,0,0.53-.34L38,23.9h0q0.4-.21.81-0.38h0l0.48-.19a8.48,8.48,0,0,1,2.13-.45Q41.8,22.86,42.16,22.87ZM43.26,24a0.94,0.94,0,0,0-.42.11,0.24,0.24,0,0,0-.14.23,0.25,0.25,0,0,0,0,.08l0,0,0,0,0.11,0.06h0l0.14,0,0.16,0h0a0.92,0.92,0,0,1,.21.07,1.7,1.7,0,0,0,.62.36,0.59,0.59,0,0,0,.62-0.31,0.83,0.83,0,0,0-.68-0.6A1.87,1.87,0,0,0,43.26,24Zm-4.69.19a0.74,0.74,0,0,0-.44.29,0.66,0.66,0,0,0-.12.23,0.28,0.28,0,0,0,0,.21,0.25,0.25,0,0,0,.28.12c0.14-.08.26-0.36,0.42-0.47a0.26,0.26,0,0,0,0-.38A0.27,0.27,0,0,0,38.57,24.21ZM35,25.78l0.14,0.09h0Zm18.57,7c0.3,0.66.55,1.34,0.83,2,0.14,0.33.29,0.66,0.44,1l0.14,0.3L55,36.29c0.49,1,1,2,1.5,3,0.14,0.29.29,0.58,0.42,0.87A28.94,28.94,0,0,1,59.3,48,20.33,20.33,0,0,1,63,53.27c2.73,5.64,2.7,12.21,2,18.43,0,0.17,0,.33-0.07.5L63.7,72a10.93,10.93,0,0,0-1.26-.14h-0.5A3.43,3.43,0,0,0,58.54,75a8.15,8.15,0,0,0,0,1.91,53.49,53.49,0,0,1-.07,8.94l-0.26.25a33.18,33.18,0,0,1-7.25,5.73,19,19,0,0,1-15.7.77A15.82,15.82,0,0,0,33.63,90c-0.64-.85-1.29-1.62-1.91-2.38a3.57,3.57,0,0,0,1.16-.28,2.77,2.77,0,0,0,1.21-1,2.9,2.9,0,0,0,.41-1.89,4.51,4.51,0,0,0-.67-1.83,13.24,13.24,0,0,0-3.42-3.34Q27,76.62,23.8,73.73l-1.29-1.17c-0.26-.25-0.52-0.5-0.78-0.76h0a7.68,7.68,0,0,1-1.14-1.42,8.21,8.21,0,0,1-.93-2.68A14.88,14.88,0,0,1,20.16,60c0.34-1,.79-1.88,1.23-2.8a34.37,34.37,0,0,1,2.46-4.7l0.2-.28c-0.58,1.71-1.18,3.42-1.9,5.08-0.44,1-.92,2-1.29,3.05a12.8,12.8,0,0,0-.45,7.47,11,11,0,0,0,1.17,2.81l0.1,0.16a30.29,30.29,0,0,1,.14-3.35,35.84,35.84,0,0,1,2.95-10.93,41.18,41.18,0,0,1,3.64-6.55A10,10,0,0,1,28.78,46a19.84,19.84,0,0,1,3.15-5.65c0.29-.41.59-0.83,0.86-1.25l0.28-.46,0,0,0.21-.4,0.06-.12,0.15-.35,0.06-.14c0.06-.16.12-0.33,0.16-0.5A15.35,15.35,0,0,0,34,33.61v0a13,13,0,0,1,1,1,13.78,13.78,0,0,0,2.67,2.77,6,6,0,0,0,2.8.93,9.69,9.69,0,0,0,3.37-.36,12,12,0,0,0,2.86-1.16c1.69-1,3-2.31,4.64-2.82a12,12,0,0,0,1.21-.38,2.71,2.71,0,0,0,.65-0.38A2,2,0,0,0,53.53,32.79Zm9.64,16.27a35.7,35.7,0,0,1,4.24,2.44,11.05,11.05,0,0,1,4.33,7A14,14,0,0,1,71.49,65c-0.45,1.64-1,3.23-1.62,4.83H69.78l0.37,0a8.41,8.41,0,0,1,1.5.14c0.76,0.13,1.52.3,2.28,0.45l0.39,0.07q-1.13-.06-2.27,0c-0.53,0-1.06.06-1.58,0.11a6.54,6.54,0,0,0-2.2.5,16.8,16.8,0,0,0-1.53,1l-0.34.19a5.1,5.1,0,0,1,1-1.31,4.09,4.09,0,0,1,1.82-1c1.3-3.63,2.44-7.41,1.85-11.19a11.14,11.14,0,0,0-3.89-7C65.94,50.78,64.44,50.08,63.18,49.06Zm6.47,20.83L69.26,70ZM17.08,71h0L17.53,71a4.39,4.39,0,0,1,1.65.71,10.51,10.51,0,0,1,2.45,2.64c1.63,2.24,3.2,4.54,4.62,6.92,1.15,1.93,2.21,3.93,3.55,5.74l0.34,0.44c0.78,1,1.63,2,2.39,3,0.29,0.4.58,0.81,0.84,1.23A12.16,12.16,0,0,1,34,92.94l0.06,0.14q0.11,0.23.2,0.47l0.08,0.22,0,0.12c0.05,0.15.1,0.31,0.14,0.47s0.08,0.32.11,0.48l0,0.12c0,0.16.06,0.32,0.08,0.48h0v0c0,0.14,0,.28,0,0.41s0,0.32,0,.48,0,0.11,0,.17c0,0.21,0,.41,0,0.62s0,0.34-.06.5-0.06.36-.1,0.54h0c0,0.17-.09.35-0.14,0.52a7.33,7.33,0,0,1-3.21,4.14,7,7,0,0,1-3.84,1c-2.13-.08-4.08-1.15-6.06-1.94-4-1.61-8.43-2.11-12.59-3.37C7.5,98.15,6.25,97.69,5,97.34a11.31,11.31,0,0,1-1.7-.54,2.93,2.93,0,0,1-1.35-1.12,2.54,2.54,0,0,1-.32-1.32A4.14,4.14,0,0,1,1.86,93c0.31-.86.82-1.64,1.16-2.5a10.49,10.49,0,0,0,.58-4.42c-0.08-1.5-.32-3-0.42-4.48a7.73,7.73,0,0,1,.06-2,3.3,3.3,0,0,1,.89-1.76A3.32,3.32,0,0,1,5.77,77a8.12,8.12,0,0,1,1.84-.12,17.7,17.7,0,0,0,1.85,0,4.25,4.25,0,0,0,1.77-.49,4.18,4.18,0,0,0,1.27-1.2,14.7,14.7,0,0,0,.91-1.5c0.2-.36.41-0.73,0.65-1.07,0.1-.14.2-0.28,0.3-0.41a3.64,3.64,0,0,1,1.38-1.07l0.29-.1,0.07,0L16.4,71l0.27,0h0.41Zm45.37,1.89a10.39,10.39,0,0,1,1.11.13l1.2,0.17h0l1.1,0.18h0.06a7.68,7.68,0,0,0-.31,2.93,4.38,4.38,0,0,0,.91,2.56A4,4,0,0,0,68.43,80a6.41,6.41,0,0,0,3.79-.05,10,10,0,0,0,5-3.76,5.72,5.72,0,0,0,.85-1.72l0.15-.24,0.08,0a3.42,3.42,0,0,1,1.44.8,3.16,3.16,0,0,1,.66,1.07,6.48,6.48,0,0,1,.41,1.83,15.86,15.86,0,0,0,.14,1.66A5.45,5.45,0,0,0,82.17,82a15.64,15.64,0,0,0,2,1.89c0.7,0.59,1.4,1.17,2.15,1.68,0.35,0.24.72,0.47,1.05,0.73a3.31,3.31,0,0,1,.85.95,2.37,2.37,0,0,1,.24,1.68h0a5.91,5.91,0,0,1-1,1.65A10.71,10.71,0,0,1,84,93a68.26,68.26,0,0,0-6.43,3.39,26.36,26.36,0,0,0-3.79,3,30.35,30.35,0,0,1-3.08,2.8,8.86,8.86,0,0,1-3.83,1.62,9.19,9.19,0,0,1-5-.75A6,6,0,0,1,59.12,101a4.32,4.32,0,0,1-.35-0.71h0c0-.09-0.07-0.19-0.1-0.29l0-.07-0.08-.29,0-.06q-0.08-.31-0.12-0.64c0-.22-0.05-0.44-0.07-0.67V98.14c0-.22,0-0.43,0-0.65a36,36,0,0,1,.76-6.3c0.31-1.73.6-3.47,0.79-5.22,0-.32.06-0.63,0.09-1s0-.53.06-0.8a55.93,55.93,0,0,0,0-7.85,7.28,7.28,0,0,1,0-1.61,2,2,0,0,1,2.08-1.9h0.37Z" transform="translate(0 -0.34)"/></g></svg>