<svg id="Layer_1" data-name="Layer 1" xmlns="http://www.w3.org/2000/svg" viewBox="0 0 90 114.93"><defs><style>.logo-dark-fill{fill:#141414;}.cls-2{fill:#fff;}</style></defs><title>raspberry-pi</title><path class="logo-dark-fill" d="M24.36,0a3.22,3.22,0,0,0-1.92.79c-1.74-.67-3.43-0.9-4.93.46-2.33-.3-3.09.32-3.66,1-0.51,0-3.82-.53-5.34,1.74-3.82-.45-5,2.25-3.66,4.76-0.78,1.21-1.59,2.4.24,4.7-0.65,1.28-.25,2.67,1.27,4.36A3.69,3.69,0,0,0,8.16,22c-0.26,2.47,2.26,3.9,3,4.41,0.29,1.44.89,2.79,3.78,3.54,0.48,2.14,2.21,2.51,3.89,3C13.3,36.11,8.54,40.35,8.57,50.76L7.76,52.22C1.39,56.09-4.33,68.52,4.62,78.63a49.47,49.47,0,0,0,2.44,8C8.37,96.73,16.89,101.47,19.14,102a40.76,40.76,0,0,0,11.55,6.56C35.17,113.21,40,115,44.89,115h0.22c4.88,0,9.73-1.76,14.2-6.37A40.76,40.76,0,0,0,70.86,102c2.25-.56,10.77-5.31,12.08-15.45a49.48,49.48,0,0,0,2.44-8c9-10.11,3.23-22.55-3.14-26.42l-0.81-1.45c0-10.41-4.73-14.66-10.28-17.89,1.68-.45,3.41-0.82,3.89-3,2.89-.75,3.49-2.11,3.78-3.54,0.75-.51,3.28-1.94,3-4.41a3.69,3.69,0,0,0,1.8-4.06c1.52-1.68,1.92-3.07,1.27-4.36,1.82-2.3,1-3.49.24-4.7,1.37-2.52.16-5.21-3.66-4.76C80,1.81,76.66,2.33,76.14,2.34c-0.57-.73-1.33-1.35-3.66-1C71-.08,69.29.16,67.55,0.83,65.49-.8,64.12.5,62.56,1c-2.5-.82-3.07.3-4.3,0.76-2.73-.58-3.56.68-4.86,2l-1.52,0c-4.11,2.42-6.16,7.36-6.88,9.9-0.72-2.54-2.76-7.47-6.87-9.9l-1.52,0c-1.31-1.32-2.14-2.58-4.86-2C30.51,1.3,29.94.18,27.44,1c-1-.32-2-1-3.08-1h0Z" transform="translate(0 -0.03)"/><path class="cls-2" d="M16.17,10.7C27.09,16.32,33.43,20.87,36.9,24.75,35.12,31.88,25.84,32.21,22.45,32a2.55,2.55,0,0,0,1.48-1.31c-0.85-.61-3.87-0.06-6-1.25a2,2,0,0,0,1.57-.93c-2-.64-4.14-1.18-5.4-2.24a3.05,3.05,0,0,0,2.21-.46c-1.78-1-3.69-1.72-5.17-3.19,0.92,0,1.92,0,2.21-.35a19.9,19.9,0,0,1-4.15-3.37,3.05,3.05,0,0,0,2.15-.2c-1.23-1.26-2.8-2.33-3.54-3.89a2.61,2.61,0,0,0,2.47,0c-0.42-.95-2.22-1.5-3.25-3.72a5.21,5.21,0,0,0,2.29,0A10.9,10.9,0,0,0,7.26,7c2.16,0,5.43,0,5.28-.17L11.21,5.44A10.54,10.54,0,0,1,17,6c0.7-.56,0-1.26-0.87-2a21.2,21.2,0,0,1,4.88,1.22c0.78-.71-0.51-1.41-1.13-2.12a12.48,12.48,0,0,1,5.11,2c0.85-.81,0-1.5-0.52-2.21a12.51,12.51,0,0,1,4.3,2.76,1.51,1.51,0,0,0,.26-2.15,10.9,10.9,0,0,1,3.43,3C33.41,6,33,5.16,33,4.43a34.17,34.17,0,0,1,3.72,3.89,3.28,3.28,0,0,0,.64-1.71c3.68,3.57,8.87,12.55,1.34,16.11a70.86,70.86,0,0,0-22.56-12h0Z" transform="translate(0 -0.03)"/><path class="cls-2" d="M74.07,10.7C63.16,16.32,56.82,20.87,53.34,24.75,55.12,31.88,64.4,32.21,67.8,32a2.55,2.55,0,0,1-1.48-1.31c0.85-.61,3.87-0.06,6-1.25a2,2,0,0,1-1.57-.93c2-.64,4.14-1.18,5.4-2.24a3.05,3.05,0,0,1-2.21-.46c1.78-1,3.69-1.72,5.17-3.19-0.92,0-1.92,0-2.21-.35A19.9,19.9,0,0,0,81,18.91a3.05,3.05,0,0,1-2.15-.2c1.23-1.26,2.8-2.33,3.54-3.89a2.61,2.61,0,0,1-2.47,0c0.42-.95,2.22-1.5,3.25-3.72a5.21,5.21,0,0,1-2.29,0A10.91,10.91,0,0,1,83,7c-2.16,0-5.43,0-5.28-.17L79,5.44A10.54,10.54,0,0,0,73.2,6c-0.7-.56,0-1.26.87-2a21.2,21.2,0,0,0-4.88,1.22c-0.78-.71.51-1.41,1.13-2.12a12.48,12.48,0,0,0-5.11,2c-0.85-.81,0-1.5.52-2.21a12.51,12.51,0,0,0-4.3,2.76,1.51,1.51,0,0,1-.26-2.15,10.9,10.9,0,0,0-3.43,3C56.84,6,57.21,5.16,57.2,4.43a34.17,34.17,0,0,0-3.72,3.89,3.28,3.28,0,0,1-.64-1.71C49.17,10.17,44,19.16,51.51,22.72a70.78,70.78,0,0,1,22.56-12h0Z" transform="translate(0 -0.03)"/><path class="cls-2" d="M58.34,83.33c0,6.66-5.78,12.08-13,12.12s-13.1-5.33-13.14-12q0-.06,0-0.13c0-6.66,5.78-12.08,13-12.12s13.1,5.33,13.14,12Q58.34,83.27,58.34,83.33Z" transform="translate(0 -0.03)"/><path class="cls-2" d="M37.7,48.9c5.42,3.55,6.39,11.59,2.18,18s-12,8.66-17.43,5.11h0C17,68.43,16.06,60.39,20.27,54s12-8.66,17.43-5.11h0Z" transform="translate(0 -0.03)"/><path class="cls-2" d="M52.32,48.26c-5.42,3.55-6.39,11.59-2.18,18s12,8.66,17.43,5.11h0c5.42-3.55,6.39-11.59,2.18-18s-12-8.66-17.43-5.11h0Z" transform="translate(0 -0.03)"/><path class="cls-2" d="M10.64,54.7c5.85-1.57,2,24.19-2.78,22.08C2.62,72.57.94,60.24,10.64,54.7Z" transform="translate(0 -0.03)"/><path class="cls-2" d="M78.21,54.38c-5.85-1.57-2,24.19,2.78,22.08,5.23-4.21,6.92-16.54-2.78-22.08h0Z" transform="translate(0 -0.03)"/><path class="cls-2" d="M58.34,35.2c10.09-1.7,18.49,4.29,18.15,15.23C76.16,54.63,54.62,35.83,58.34,35.2Z" transform="translate(0 -0.03)"/><path class="cls-2" d="M30.46,34.88C20.37,33.18,12,39.17,12.31,50.11c0.33,4.19,21.86-14.61,18.15-15.23h0Z" transform="translate(0 -0.03)"/><path class="cls-2" d="M45,32.33c-6-.16-11.8,4.47-11.82,7.15,0,3.26,4.76,6.6,11.86,6.68,7.25,0.05,11.87-2.67,11.89-6,0-3.81-6.59-7.86-11.93-7.8h0Z" transform="translate(0 -0.03)"/><path class="cls-2" d="M45.32,99.19c5.25-.23,12.3,1.69,12.31,4.24s-6.39,8.06-12.66,8c-6.49.28-12.86-5.32-12.77-7.26-0.1-2.84,7.9-5.07,13.12-4.94h0Z" transform="translate(0 -0.03)"/><path class="cls-2" d="M25.93,84.09c3.74,4.5,5.44,12.42,2.32,14.75-3,1.78-10.12,1-15.21-6.27-3.44-6.14-3-12.39-.58-14.23,3.61-2.2,9.18.77,13.47,5.75h0Z" transform="translate(0 -0.03)"/><path class="cls-2" d="M64,82.66c-4,4.74-6.3,13.38-3.35,16.16,2.82,2.16,10.39,1.86,16-5.9,4.06-5.21,2.7-13.92.38-16.23-3.45-2.67-8.39.75-13,6h0Z" transform="translate(0 -0.03)"/></svg>