<svg id="Layer_1" data-name="Layer 1" xmlns="http://www.w3.org/2000/svg" viewBox="0 0 466 234"><defs><style>.cls-1{fill:#fffcf0;}.cls-2{fill:#c2176b;}.cls-3{fill:#141414;}.cls-4{fill:#db2774;}</style></defs><title>card</title><rect class="cls-1" width="466" height="234"/><path class="cls-2" d="M120.94,151s-0.08-.41-0.23-1.15a3.17,3.17,0,0,0-.23-0.79,1.66,1.66,0,0,0-.94-0.71,2.62,2.62,0,0,0-1.4,0,2,2,0,0,0-1.1.61,1.36,1.36,0,0,0-.31,1.07,3.47,3.47,0,0,0,1.06,1.68q0.43,0.46,1.35,1.32t1.12,1q0.5,0.46.86,0.86t0.81,0.94a5.6,5.6,0,0,1,.71,1.09,11,11,0,0,1,.48,1.15,3.63,3.63,0,0,1,.2,1.3,5.54,5.54,0,0,1-.21,1.38,3.7,3.7,0,0,1-2.16,2.51,4.68,4.68,0,0,1-3.28.13,5.62,5.62,0,0,1-2.85-2,5.51,5.51,0,0,1-1.17-3.54,1,1,0,0,1,2,0,3.69,3.69,0,0,0,2.61,3.63,2.8,2.8,0,0,0,1.88,0,1.86,1.86,0,0,0,1.09-1.3,2.75,2.75,0,0,0-.23-2.23,10.67,10.67,0,0,0-2-2.49q-0.17-.13-1.15-1.05l-1.38-1.32a5.42,5.42,0,0,1-1.62-2.87,3,3,0,0,1,.74-2.49,4.16,4.16,0,0,1,2.23-1.3,4.54,4.54,0,0,1,2.54.13,3.22,3.22,0,0,1,1.95,1.62,4.2,4.2,0,0,1,.46,1.32s0,0.17.07,0.43a4.21,4.21,0,0,0,.13.59,1,1,0,0,1-.1.76,0.9,0.9,0,0,1-.59.46,1,1,0,0,1-.76-0.1A0.89,0.89,0,0,1,120.94,151Z" transform="translate(0 -0.1)"/><path class="cls-2" d="M127.23,148.46q-0.2,1.68-.23,3.41a35.6,35.6,0,0,0,.12,3.56q0.15,1.83.35,3.3t0.53,3.61a1,1,0,0,1-.18.76,1,1,0,0,1-.66.4,0.94,0.94,0,0,1-.74-0.18,1,1,0,0,1-.4-0.64q-0.33-2.21-.51-3.68t-0.35-3.4a36.18,36.18,0,0,1-.13-3.76q0-1.83.23-3.64a1,1,0,0,1,.38-0.64,1,1,0,0,1,1.38.17A1,1,0,0,1,127.23,148.46Zm-0.07-5.38a1,1,0,1,1-.69-0.3A1,1,0,0,1,127.17,143.08Z" transform="translate(0 -0.1)"/><path class="cls-2" d="M137.06,159.08a51,51,0,0,0-.3-5.41,10,10,0,0,0-.82-3.17,1.62,1.62,0,0,0-.43-0.53,0.51,0.51,0,0,0-.3,0,2.37,2.37,0,0,0-.82,1,22.16,22.16,0,0,0-1.12,2.57,20.81,20.81,0,0,0-1.29,4.81,14.6,14.6,0,0,0,0,2.57q0,0.79,0,1.06a1.72,1.72,0,0,1-.07.53,1,1,0,0,1-.69.66,1,1,0,0,1-1-.26,0.62,0.62,0,0,1-.26-0.43,0.27,0.27,0,0,0,0-.1v-0.26a4.37,4.37,0,0,0,0-.46l-0.07-1.55-0.17-4.78q-0.26-7.65-.26-7.91a1,1,0,0,1,2,0q0,0.63.17,5a16.86,16.86,0,0,1,1.09-2.41,4.14,4.14,0,0,1,1.81-1.91,2.3,2.3,0,0,1,1.95.07,3.28,3.28,0,0,1,1.25,1.35,11.54,11.54,0,0,1,1,3.69,27.52,27.52,0,0,1,1.65-3.13,11.78,11.78,0,0,1,2.34-2.87,3.13,3.13,0,0,1,3.23-.79q1.55,0.59,2.18,3.07a21.28,21.28,0,0,1,.56,4.62q0.07,1.39,0,4.78-0.07,2.67,0,3.33a1,1,0,0,1-.91,1.06,1,1,0,0,1-1.07-.92q-0.07-.79,0-3.53,0.07-3.43,0-4.65a18.28,18.28,0,0,0-.48-4.17,2.48,2.48,0,0,0-1-1.73,1.44,1.44,0,0,0-1.25.46A10.4,10.4,0,0,0,142,151.2a25.83,25.83,0,0,0-1.52,2.9,19.64,19.64,0,0,0-1,2.41,14.79,14.79,0,0,0-.53,2.77v1.25l-0.07.2a0.7,0.7,0,0,1-.23.33,0.92,0.92,0,0,1-1.06.23,0.94,0.94,0,0,1-.49-0.43,0.78,0.78,0,0,1-.1-0.2,0.29,0.29,0,0,0,0-.13v-0.46a5,5,0,0,1,0-.82A0.37,0.37,0,0,1,137.06,159.08Z" transform="translate(0 -0.1)"/><path class="cls-2" d="M152.86,163.07q0,2.44.16,4.62a0.91,0.91,0,0,1-.25.73,1,1,0,0,1-.69.33,0.89,0.89,0,0,1-.71-0.25,1,1,0,0,1-.33-0.68q-0.13-2.41-.17-5.29t0-5q0-2.09.15-5.42t0.13-5.08a0.9,0.9,0,0,1,.3-0.68,1,1,0,0,1,.71-0.28,0.92,0.92,0,0,1,.69.3,1,1,0,0,1,.28.73q0,0.86,0,1.88l0.59-.76a5.51,5.51,0,0,1,2.44-1.78,3.41,3.41,0,0,1,3.2.59,5.86,5.86,0,0,1,2.19,3.26,11,11,0,0,1,.28,4.39,13,13,0,0,1-1.29,4.14,8.19,8.19,0,0,1-2.44,3A7.77,7.77,0,0,1,152.86,163.07Zm0.1-9.3q-0.13,4.55-.13,7.32a9.73,9.73,0,0,0,2.32-.07,4.23,4.23,0,0,0,1.76-.76,6.39,6.39,0,0,0,1.88-2.37,11.15,11.15,0,0,0,1.05-3.46,8.54,8.54,0,0,0-.17-3.46,4.14,4.14,0,0,0-1.52-2.34,1.45,1.45,0,0,0-1.38-.3,3.45,3.45,0,0,0-1.55,1.19,9.46,9.46,0,0,0-1.35,2,13.09,13.09,0,0,0-.86,2.08Z" transform="translate(0 -0.1)"/><path class="cls-2" d="M166.61,140.58a59.52,59.52,0,0,0-.87,7.11,50.86,50.86,0,0,0,.12,7.85,23.24,23.24,0,0,0,1.48,6.78,1,1,0,0,1,0,.74,0.9,0.9,0,0,1-.53.53,1,1,0,0,1-.76,0,0.94,0.94,0,0,1-.54-0.54,25.82,25.82,0,0,1-1.58-7.29,51.89,51.89,0,0,1-.13-8.23,61.63,61.63,0,0,1,.92-7.34,1,1,0,0,1,1.14-.78,1,1,0,0,1,.64.41A0.91,0.91,0,0,1,166.61,140.58Z" transform="translate(0 -0.1)"/><path class="cls-2" d="M171,158.42a4.51,4.51,0,0,0,1.45,2.14,3.28,3.28,0,0,0,2,.69,4.31,4.31,0,0,0,2.31-.72,5.8,5.8,0,0,0,1.81-2.18,0.94,0.94,0,0,1,.58-0.51,1,1,0,0,1,.76.07,0.9,0.9,0,0,1,.5.56,1,1,0,0,1,0,.74,7.57,7.57,0,0,1-2.56,3,5.78,5.78,0,0,1-3.38,1,5.27,5.27,0,0,1-3.33-1.25,6.82,6.82,0,0,1-2.14-3.43,8.48,8.48,0,0,1,0-3.5,14.61,14.61,0,0,1,1.32-3.86,12.23,12.23,0,0,1,2.44-3.46,4.67,4.67,0,0,1,3.2-1.42,2.73,2.73,0,0,1,2,.63,3.29,3.29,0,0,1,1,1.65,5.29,5.29,0,0,1-.23,3.33,10,10,0,0,1-3,4.29A9.73,9.73,0,0,1,171,158.42Zm-0.23-2a7.51,7.51,0,0,0,3.64-1.78,8.45,8.45,0,0,0,2.39-3.4,3.49,3.49,0,0,0,.17-2.14,1,1,0,0,0-1.06-.82,3,3,0,0,0-2,1,9.39,9.39,0,0,0-1.88,2.77A12,12,0,0,0,170.8,156.44Z" transform="translate(0 -0.1)"/><path class="cls-2" d="M186.49,160.36a9.94,9.94,0,0,1-4.62,6.5,0.9,0.9,0,0,1-.73.15,1,1,0,0,1-.63-0.43,1,1,0,0,1,.3-1.37,8.16,8.16,0,0,0,3.76-5.24,0.91,0.91,0,0,1,.41-0.63,1,1,0,0,1,.74-0.15,1,1,0,0,1,.63.43A0.89,0.89,0,0,1,186.49,160.36Z" transform="translate(0 -0.1)"/><path class="cls-2" d="M199.29,149.09a6.38,6.38,0,0,1,4.55-3,4.78,4.78,0,0,1,5,2.9,15.06,15.06,0,0,1,1.42,5.31q0.17,1.55.17,5.24v2a5.08,5.08,0,0,1,0,.66,1.25,1.25,0,0,1,0,.3,1.14,1.14,0,0,1-.2.4,0.86,0.86,0,0,1-.76.4,0.9,0.9,0,0,1-.76-0.33,1.9,1.9,0,0,1-.36-0.79c0-.2-0.1-0.47-0.16-0.83L207.86,160a15.22,15.22,0,0,1-1.78,1.65q-3.33,2.54-6.4.79a4.69,4.69,0,0,1-1.9-1.86,4.41,4.41,0,0,1-.54-2.36,7.71,7.71,0,0,1,.51-2.37,7,7,0,0,1,1.2-2,5.91,5.91,0,0,1,4.19-2.34q2.8-.17,4.95,2.64l0.13,0.2a12.87,12.87,0,0,0-1.15-4.32,3,3,0,0,0-3-1.85,4.47,4.47,0,0,0-3.1,2.11,1.11,1.11,0,0,1-.66.41,0.86,0.86,0,0,1-.73-0.16,1,1,0,0,1-.41-0.64A0.89,0.89,0,0,1,199.29,149.09Zm8.11,8.41a6.59,6.59,0,0,0-.89-2.24,3.84,3.84,0,0,0-3.23-1.85,4,4,0,0,0-2.8,1.62,4.8,4.8,0,0,0-1.22,3.2,2.64,2.64,0,0,0,1.42,2.47q1.91,1.09,4.22-.66A14.44,14.44,0,0,0,207.4,157.49Z" transform="translate(0 -0.1)"/><path class="cls-2" d="M215.08,140.58a59.52,59.52,0,0,0-.87,7.11,50.86,50.86,0,0,0,.12,7.85,23.24,23.24,0,0,0,1.48,6.78,1,1,0,0,1,0,.74,0.9,0.9,0,0,1-.53.53,1,1,0,0,1-.76,0A0.94,0.94,0,0,1,214,163a25.82,25.82,0,0,1-1.58-7.29,51.89,51.89,0,0,1-.13-8.23,61.63,61.63,0,0,1,.92-7.34,1,1,0,0,1,1.14-.78,1,1,0,0,1,.64.41A0.91,0.91,0,0,1,215.08,140.58Z" transform="translate(0 -0.1)"/><path class="cls-2" d="M218.84,147.54q0.43,1.68,1.29,5.44t1.39,5.71l0,0.13,0.66-2.34q0.73-2.54,1.22-3.79a5.92,5.92,0,0,1,.66-1.35,2.61,2.61,0,0,1,.53-0.56,1.26,1.26,0,0,1,1.78.3,3.2,3.2,0,0,1,.33.5q0.26,0.49.63,1.35l1.48,3.69q1.05,2.67,1.48,3.63l0.17,0.33,0.26-1.05a118.85,118.85,0,0,1,4.91-12.7,0.89,0.89,0,0,1,.54-0.53,1,1,0,0,1,.76,0,0.9,0.9,0,0,1,.51.54,1,1,0,0,1,0,.74,113.9,113.9,0,0,0-4.78,12.5,6.1,6.1,0,0,0-.26,1c-0.11.46-.19,0.77-0.23,0.92a5,5,0,0,1-.4.89,1.23,1.23,0,0,1-1.42.56,1.48,1.48,0,0,1-.69-0.46,2.74,2.74,0,0,1-.4-0.53,8,8,0,0,1-.73-1.35q-0.56-1.22-1.55-3.76-1.09-2.8-1.45-3.66l-0.2-.46-0.1.2q-0.46,1.15-1.15,3.59l-0.46,1.75q-0.4,1.42-.59,2-0.26.89-.43,1.32a2.39,2.39,0,0,1-.26.51,1.62,1.62,0,0,1-.3.31,1,1,0,0,1-.86.2,0.91,0.91,0,0,1-.53-0.3,1.1,1.1,0,0,1-.13-0.17,0.34,0.34,0,0,1-.07-0.1,0.38,0.38,0,0,0,0-.12l0-.12a2,2,0,0,1-.07-0.3l-0.23-.86-0.5-1.95q-0.53-2-1.38-5.74T216.93,148a1,1,0,0,1,.1-0.74,0.92,0.92,0,0,1,.61-0.45,1,1,0,0,1,.76.1A0.93,0.93,0,0,1,218.84,147.54Z" transform="translate(0 -0.1)"/><path class="cls-2" d="M240.24,149.09a6.38,6.38,0,0,1,4.55-3,4.78,4.78,0,0,1,5,2.9,15.06,15.06,0,0,1,1.42,5.31q0.17,1.55.17,5.24v2a5.08,5.08,0,0,1,0,.66,1.25,1.25,0,0,1,0,.3,1.14,1.14,0,0,1-.2.4,0.86,0.86,0,0,1-.76.4,0.9,0.9,0,0,1-.76-0.33,1.9,1.9,0,0,1-.36-0.79c0-.2-0.1-0.47-0.16-0.83L248.82,160a15.22,15.22,0,0,1-1.78,1.65q-3.33,2.54-6.4.79a4.69,4.69,0,0,1-1.9-1.86,4.41,4.41,0,0,1-.54-2.36,7.71,7.71,0,0,1,.51-2.37,7,7,0,0,1,1.2-2,5.91,5.91,0,0,1,4.19-2.34q2.8-.17,4.95,2.64l0.13,0.2a12.87,12.87,0,0,0-1.15-4.32,3,3,0,0,0-3-1.85,4.47,4.47,0,0,0-3.1,2.11,1.11,1.11,0,0,1-.66.41,0.86,0.86,0,0,1-.73-0.16,1,1,0,0,1-.41-0.64A0.89,0.89,0,0,1,240.24,149.09Zm8.11,8.41a6.59,6.59,0,0,0-.89-2.24,3.84,3.84,0,0,0-3.23-1.85,4,4,0,0,0-2.8,1.62,4.8,4.8,0,0,0-1.22,3.2,2.64,2.64,0,0,0,1.42,2.47q1.91,1.09,4.22-.66A14.44,14.44,0,0,0,248.35,157.49Z" transform="translate(0 -0.1)"/><path class="cls-2" d="M265.2,147.24a72.19,72.19,0,0,1-3.76,11.34q-3.17,7.78-5.77,10.16a0.86,0.86,0,0,1-.71.26,1,1,0,0,1-.69-0.33A0.89,0.89,0,0,1,254,168a1,1,0,0,1,.33-0.68,19.57,19.57,0,0,0,3.56-5.57q-1-2.5-2.64-7.24t-2.41-6.74a1,1,0,0,1,0-.78,0.89,0.89,0,0,1,.54-0.51,1,1,0,0,1,.76,0,0.9,0.9,0,0,1,.51.53q0.79,2.08,2.19,6.15t2.16,6.05l0.56-1.35a72.52,72.52,0,0,0,3.66-11.08,0.85,0.85,0,0,1,.41-0.61,1,1,0,0,1,.76-0.13,0.91,0.91,0,0,1,.63.43A1,1,0,0,1,265.2,147.24Z" transform="translate(0 -0.1)"/><path class="cls-2" d="M273.12,151s-0.08-.41-0.23-1.15a3.17,3.17,0,0,0-.23-0.79,1.66,1.66,0,0,0-.94-0.71,2.62,2.62,0,0,0-1.4,0,2,2,0,0,0-1.1.61,1.36,1.36,0,0,0-.31,1.07,3.47,3.47,0,0,0,1.06,1.68q0.43,0.46,1.35,1.32t1.12,1q0.5,0.46.86,0.86t0.81,0.94a5.6,5.6,0,0,1,.71,1.09,11,11,0,0,1,.48,1.15,3.63,3.63,0,0,1,.2,1.3,5.54,5.54,0,0,1-.21,1.38,3.7,3.7,0,0,1-2.16,2.51,4.68,4.68,0,0,1-3.28.13,5.62,5.62,0,0,1-2.85-2,5.51,5.51,0,0,1-1.17-3.54,1,1,0,0,1,2,0,3.69,3.69,0,0,0,2.61,3.63,2.8,2.8,0,0,0,1.88,0,1.86,1.86,0,0,0,1.09-1.3,2.75,2.75,0,0,0-.23-2.23,10.67,10.67,0,0,0-2-2.49q-0.17-.13-1.15-1.05l-1.38-1.32a5.42,5.42,0,0,1-1.62-2.87,3,3,0,0,1,.74-2.49,4.16,4.16,0,0,1,2.23-1.3,4.54,4.54,0,0,1,2.54.13,3.22,3.22,0,0,1,1.95,1.62,4.2,4.2,0,0,1,.46,1.32s0,0.17.07,0.43a4.21,4.21,0,0,0,.13.59,1,1,0,0,1-.1.76,0.9,0.9,0,0,1-.59.46,1,1,0,0,1-.76-0.1A0.89,0.89,0,0,1,273.12,151Z" transform="translate(0 -0.1)"/><path class="cls-2" d="M277.7,151.76a40.17,40.17,0,0,0,7.16-.86,0.9,0.9,0,0,1,.74.13,1,1,0,0,1,.43.63,1,1,0,0,1-.15.74,0.91,0.91,0,0,1-.63.41,41,41,0,0,1-7.55.92A1,1,0,0,1,277.7,151.76Z" transform="translate(0 -0.1)"/><path class="cls-2" d="M291.52,146.81a0.92,0.92,0,0,1,.45-0.53,1.12,1.12,0,0,1,.64-0.13,6.65,6.65,0,0,1,3.56,1.9,9,9,0,0,1,2.14,3.38,12.12,12.12,0,0,1,.73,4,8.75,8.75,0,0,1-1.52,5.47,5.39,5.39,0,0,1-5.08,2.34,5.21,5.21,0,0,1-2.54-.86,4.65,4.65,0,0,1-1.6-1.88,9.29,9.29,0,0,1-.76-2.41,11.92,11.92,0,0,1-.15-2.61,15.36,15.36,0,0,1,1.19-5.11,7,7,0,0,1,2.8-3.5A0.3,0.3,0,0,1,291.52,146.81Zm1.85,1.65-0.36,0-0.17,0-0.2,0a0.87,0.87,0,0,0-.33.1,4.8,4.8,0,0,0-1.91,2.51,13,13,0,0,0-1,4.42,7.57,7.57,0,0,0,.69,4,3,3,0,0,0,2.51,1.65,3.56,3.56,0,0,0,3.36-1.52,7.16,7.16,0,0,0,1.12-4.29,9.53,9.53,0,0,0-1-4.27A5.61,5.61,0,0,0,293.37,148.46Z" transform="translate(0 -0.1)"/><path class="cls-2" d="M300.49,161.06q0-2.24,0-3.23t0-3.31q0-2.29-.1-3.94t-0.31-3.2a1.08,1.08,0,0,1,.2-0.73,0.88,0.88,0,0,1,.64-0.38,1,1,0,0,1,.74.18,1,1,0,0,1,.4.66,61.72,61.72,0,0,1,.4,6.83,27.44,27.44,0,0,1,2-3.53,10,10,0,0,1,2.41-2.47,4.14,4.14,0,0,1,1.91-.79,2.45,2.45,0,0,1,2.18.86,6.29,6.29,0,0,1,1.19,2.93,29.67,29.67,0,0,1,.49,4q0.2,2.77.2,7.16a1,1,0,0,1-2,0q0-4.48-.17-7a30.15,30.15,0,0,0-.46-3.76,4.79,4.79,0,0,0-.73-2,0.62,0.62,0,0,0-.53-0.2,2.08,2.08,0,0,0-1,.43,7.48,7.48,0,0,0-1.91,2,19,19,0,0,0-3.63,9.63q0,0.92,0,1.25v0.2a0.53,0.53,0,0,1-.07.23,0.91,0.91,0,0,1-.23.4,1,1,0,0,1-.76.26,1,1,0,0,1-.66-0.33,0.91,0.91,0,0,1-.23-0.36,0.37,0.37,0,0,0,0-.12,0.34,0.34,0,0,1,0-.12v-0.43Q300.46,161.62,300.49,161.06Z" transform="translate(0 -0.1)"/><path class="cls-2" d="M326.8,148.46q-0.2,1.68-.23,3.41a35.6,35.6,0,0,0,.12,3.56q0.15,1.83.35,3.3t0.53,3.61a1,1,0,0,1-.18.76,1,1,0,0,1-.66.4,0.94,0.94,0,0,1-.74-0.18,1,1,0,0,1-.4-0.64q-0.33-2.21-.51-3.68t-0.35-3.4a36.18,36.18,0,0,1-.13-3.76q0-1.83.23-3.64a1,1,0,0,1,.38-0.64,1,1,0,0,1,1.38.17A1,1,0,0,1,326.8,148.46Zm-0.07-5.38a1,1,0,1,1-.69-0.3A1,1,0,0,1,326.74,143.08Z" transform="translate(0 -0.1)"/><path class="cls-2" d="M331.22,148.19q0.17,1.72.2,4.32v1.25a15.84,15.84,0,0,1,5.9-7.42,0.9,0.9,0,0,1,.73-0.15,1,1,0,0,1,.63.43,1,1,0,0,1-.3,1.37,12.88,12.88,0,0,0-4.22,4.67,22.17,22.17,0,0,0-2.34,6.61q0,0.33,0,1.25a7.18,7.18,0,0,1-.17,1.75,34.83,34.83,0,0,1-.13.33,0.85,0.85,0,0,1-.43.36,0.88,0.88,0,0,1-1.12-.16,1.25,1.25,0,0,1-.26-0.4,1.1,1.1,0,0,1,0-.26,2.46,2.46,0,0,1,0-.49q0-.86,0-0.92-0.16-3.63-.16-3.92,0-.46,0-4.25,0-2.54-.2-4.16a1,1,0,0,1,.23-0.74,1,1,0,0,1,.68-0.35,1,1,0,0,1,.73.23A0.94,0.94,0,0,1,331.22,148.19Z" transform="translate(0 -0.1)"/><path class="cls-2" d="M348.14,150.37a3.74,3.74,0,0,0-1.12-2.11,1.11,1.11,0,0,0-1.09,0,4.22,4.22,0,0,0-1.58,1.32,6.86,6.86,0,0,0-1.19,2.24,11.34,11.34,0,0,0-.58,3.74,9,9,0,0,0,.56,3.07,5.33,5.33,0,0,0,1.3,2,2.28,2.28,0,0,0,2.54.46q1.85-.73,3.56-3.83a1,1,0,0,1,.59-0.45,0.92,0.92,0,0,1,.74.08,1,1,0,0,1,.38,1.35q-2,3.69-4.55,4.68a4.12,4.12,0,0,1-4.55-.83,7.73,7.73,0,0,1-2.37-4.58,13.14,13.14,0,0,1,.46-6.33,9.56,9.56,0,0,1,1.6-2.93,6,6,0,0,1,2.32-1.88,3,3,0,0,1,3,.26,5.3,5.3,0,0,1,1.91,3.26,1,1,0,0,1-.1.74,0.92,0.92,0,0,1-.61.45,1,1,0,0,1-.76-0.1A0.92,0.92,0,0,1,348.14,150.37Z" transform="translate(0 -0.1)"/><path class="cls-3" d="M120.68,104.79a39.65,39.65,0,0,1-3.39,6.93q-4,6.08-9.46,6.92A8.05,8.05,0,0,1,100,115q-2.54-3.85-1.15-10.46a36.57,36.57,0,0,1,4.54-11.31,28.82,28.82,0,0,1,7.77-8.93q5.38-3.85,10-1.69A5.23,5.23,0,0,1,123.07,84l0.46,0.46h0.08a2.1,2.1,0,0,1,1.23,1.15,2.41,2.41,0,0,1,.15.46,1.45,1.45,0,0,1,.12.35,2.67,2.67,0,0,1,0,.5v1.38q0.08,0.77.08,4,0.08,7.85.08,8.77a100.75,100.75,0,0,1-.69,14.77q-1.39,10.85-5.69,14.54a13.23,13.23,0,0,1-4.39,2.54,12.35,12.35,0,0,1-4.35.69q-2-.08-4.35-0.23a2.08,2.08,0,0,1-1.58-.85,2.47,2.47,0,0,1-.5-1.73,2,2,0,0,1,.85-1.54,2.4,2.4,0,0,1,1.69-.5,18.11,18.11,0,0,0,5.35.12,8.15,8.15,0,0,0,4.19-2q3-2.54,4.23-11.62A79.87,79.87,0,0,0,120.68,104.79Zm-0.31-17H120.3l-0.46-.54a2.91,2.91,0,0,0-.54-0.46q-2.23-1-5.46,1.31a24.12,24.12,0,0,0-6.46,7.54,31.64,31.64,0,0,0-4,9.85q-1,4.77.46,7.08a3.12,3.12,0,0,0,3.39,1.46q3.39-.46,6.16-4.85a42.06,42.06,0,0,0,4.08-8.77,58.83,58.83,0,0,0,2.46-8.85q0.23-1.31.38-3.31Z" transform="translate(0 -0.1)"/><path class="cls-3" d="M136.3,83.32a2.16,2.16,0,0,1,1-1.23,2.61,2.61,0,0,1,1.5-.31,15.51,15.51,0,0,1,8.31,4.42,21,21,0,0,1,5,7.89,28.27,28.27,0,0,1,1.69,9.23Q154,111,150.31,116.1a12.59,12.59,0,0,1-11.85,5.46,12.18,12.18,0,0,1-5.92-2,10.82,10.82,0,0,1-3.73-4.39,21.65,21.65,0,0,1-1.77-5.62,27.86,27.86,0,0,1-.35-6.08,35.86,35.86,0,0,1,2.77-11.93q2.69-6.08,6.54-8.16A0.68,0.68,0,0,1,136.3,83.32Zm4.31,3.85a5.13,5.13,0,0,1-.85.08l-0.38,0-0.46,0a2,2,0,0,0-.77.23q-2.46,1.23-4.46,5.85a30.29,30.29,0,0,0-2.39,10.31q-0.31,5.85,1.62,9.39a6.92,6.92,0,0,0,5.85,3.85,8.3,8.3,0,0,0,7.85-3.54q2.69-3.85,2.62-10a22.22,22.22,0,0,0-2.38-10A13.09,13.09,0,0,0,140.61,87.17Z" transform="translate(0 -0.1)"/><path class="cls-3" d="M172.08,93.17s-0.18-.95-0.54-2.69a7.46,7.46,0,0,0-.54-1.85A3.87,3.87,0,0,0,168.81,87a6.1,6.1,0,0,0-3.27-.12A4.61,4.61,0,0,0,163,88.29a3.18,3.18,0,0,0-.73,2.5q0.15,1.46,2.46,3.92,1,1.08,3.16,3.08t2.62,2.39q1.15,1.08,2,2t1.89,2.19a13,13,0,0,1,1.65,2.54,26.07,26.07,0,0,1,1.12,2.69,8.5,8.5,0,0,1,.46,3,12.87,12.87,0,0,1-.5,3.23,8.63,8.63,0,0,1-5,5.85,10.93,10.93,0,0,1-7.66.31,13.12,13.12,0,0,1-6.66-4.58,12.85,12.85,0,0,1-2.73-8.27,2.31,2.31,0,0,1,4.62,0,8.51,8.51,0,0,0,1.77,5.46,8.61,8.61,0,0,0,4.31,3,6.53,6.53,0,0,0,4.39-.12,4.33,4.33,0,0,0,2.54-3,6.41,6.41,0,0,0-.54-5.19,24.76,24.76,0,0,0-4.77-5.81q-0.39-.31-2.69-2.46l-3.23-3.08q-3.39-3.62-3.77-6.7a7.09,7.09,0,0,1,1.73-5.81,9.7,9.7,0,0,1,5.19-3,10.61,10.61,0,0,1,5.93.31A7.52,7.52,0,0,1,175,86.48a9.76,9.76,0,0,1,1.08,3.08c0,0.05.05,0.38,0.15,1a9.7,9.7,0,0,0,.31,1.39,2.37,2.37,0,0,1-.23,1.77,2.09,2.09,0,0,1-1.38,1.08,2.37,2.37,0,0,1-1.77-.23A2.1,2.1,0,0,1,172.08,93.17Z" transform="translate(0 -0.1)"/><path class="cls-3" d="M186.86,98.33a48,48,0,0,1,2.77-4.85,31,31,0,0,1,5.23-6.62q3.54-3.23,6.85-2.92,4.46,0.39,6.39,6.23a35.64,35.64,0,0,1,1.54,10.7,120.54,120.54,0,0,1-1.15,18.77,2.34,2.34,0,0,1-.88,1.5,2.34,2.34,0,0,1-3.23-.38,2.39,2.39,0,0,1-.5-1.73A126.64,126.64,0,0,0,205,101a35.31,35.31,0,0,0-1.23-9.39q-1-2.92-2.54-3.08Q200,88.4,198,90.33a27.78,27.78,0,0,0-4.54,5.62,61.45,61.45,0,0,0-3.58,6.66,32.85,32.85,0,0,0-2,5.27,70,70,0,0,0-.77,9.16v0.15a2.06,2.06,0,0,0,.08.46c0.05,0.21.1,0.44,0.15,0.69a5.23,5.23,0,0,1-.08,1.62,2.33,2.33,0,0,1-1.46,1.69,2.29,2.29,0,0,1-2.08-.08,2.9,2.9,0,0,1-1.08-1l-0.15-.46a1.44,1.44,0,0,1-.08-0.46,1.06,1.06,0,0,1-.08-0.46v-4.69q0.08-6.69.08-7.39-0.08-7.85-.77-22.85l-0.85-16.7a2.35,2.35,0,0,1,.62-1.62A2.14,2.14,0,0,1,183,65.2a2.26,2.26,0,0,1,1.65.58,2.31,2.31,0,0,1,.77,1.62q0.15,4.46.69,14.89T186.86,98.33Z" transform="translate(0 -0.1)"/><path class="cls-3" d="M219.25,84.56a91.55,91.55,0,0,0-.85,19.31,32.91,32.91,0,0,0,1.92,9.85q1.46,3.46,3.85,3.69,1.39,0.16,2.85-1.92a22.24,22.24,0,0,0,3-7,85.13,85.13,0,0,0,2.62-15.16q0.15-1.23.27-3.19t0.12-2q0.15-1.23.23-1.77t0.15-.85a1.16,1.16,0,0,1,.31-0.62,2.31,2.31,0,0,1,1.69-1.15,2.2,2.2,0,0,1,2,.77,2.09,2.09,0,0,1,.38.54,3.42,3.42,0,0,1,.15.38,0.58,0.58,0,0,0,.08.23v0.23a2.07,2.07,0,0,0,.08.46,13,13,0,0,0,.15,1.77l0.62,8.16a144,144,0,0,0,3.46,22.47,2.17,2.17,0,0,1-.27,1.73,2.26,2.26,0,0,1-1.42,1,2.17,2.17,0,0,1-1.73-.27,2.27,2.27,0,0,1-1-1.42q-1.62-6.77-2.54-13.39-0.39,1.77-.85,3.31a28.79,28.79,0,0,1-3.62,8.46q-3.08,4.31-7.31,3.85-4.92-.62-7.46-6.54a37.24,37.24,0,0,1-2.31-11.31,93.36,93.36,0,0,1,.85-20.24,2.2,2.2,0,0,1,.92-1.54,2.42,2.42,0,0,1,1.73-.42,2.05,2.05,0,0,1,1.5.88A2.51,2.51,0,0,1,219.25,84.56Z" transform="translate(0 -0.1)"/><path class="cls-3" d="M275.11,118.34v-2.62a29.1,29.1,0,0,1,.23-4l0.08-.15v-0.31q0.08-1.15.15-8.54,0.23-16.16-1-31.7a2.31,2.31,0,0,1,.54-1.73,2.21,2.21,0,0,1,1.58-.81,2.26,2.26,0,0,1,1.69.54,2.19,2.19,0,0,1,.81,1.54q1,12.31,1,26.7,1-2.08,2-3.92a27.64,27.64,0,0,1,6.69-8.54q4.85-3.69,9.7-1.31,4.39,2.31,5,8.46a26.93,26.93,0,0,1-.92,8.69q-2.54,10-9.08,15.62T277,122.18a2.38,2.38,0,0,1-1.69-.65,2.09,2.09,0,0,1-.69-1.58A2.55,2.55,0,0,1,275.11,118.34Zm4.62-1a20,20,0,0,0,11.81-5.5,25.93,25.93,0,0,0,6.66-12.27,23.51,23.51,0,0,0,.77-7.23q-0.31-3.62-2.54-4.69t-4.69.85q-2.62,2-5.46,7.08a54.89,54.89,0,0,0-4,8.85,63.35,63.35,0,0,0-2.31,7.7c0,0.26,0,.77-0.12,1.54s-0.12,1.36-.12,1.77v1.92Z" transform="translate(0 -0.1)"/><path class="cls-3" d="M307.66,116.57q0.08-5.23,0-7.54t-0.12-7.73q0-5.35-.23-9.2t-0.73-7.46a2.5,2.5,0,0,1,.46-1.69,2,2,0,0,1,1.5-.88,2.42,2.42,0,0,1,1.73.42A2.21,2.21,0,0,1,311.2,84a144.53,144.53,0,0,1,.92,15.93,64.37,64.37,0,0,1,4.77-8.23,23.23,23.23,0,0,1,5.62-5.77A9.66,9.66,0,0,1,327,84.09a5.72,5.72,0,0,1,5.08,2q1.77,1.92,2.77,6.85a68.72,68.72,0,0,1,1.15,9.39q0.46,6.46.46,16.7a2.31,2.31,0,0,1-4.62,0q0-10.46-.38-16.39a70.4,70.4,0,0,0-1.08-8.77q-0.77-3.69-1.69-4.69a1.46,1.46,0,0,0-1.23-.46,4.85,4.85,0,0,0-2.23,1,17.47,17.47,0,0,0-4.46,4.62q-7.77,11.24-8.46,22.47,0,2.15-.08,2.92v0.46a1.24,1.24,0,0,1-.15.54,2.12,2.12,0,0,1-.54.92,2.29,2.29,0,0,1-1.77.62,2.23,2.23,0,0,1-1.54-.77,2.15,2.15,0,0,1-.54-0.85,0.86,0.86,0,0,0,0-.27,0.83,0.83,0,0,1,0-.27v-1Q307.58,117.87,307.66,116.57Z" transform="translate(0 -0.1)"/><path class="cls-3" d="M357.75,91.63q-1-3.77-2.62-4.92a2.6,2.6,0,0,0-2.54-.08,9.82,9.82,0,0,0-3.69,3.08,16,16,0,0,0-2.77,5.23,26.47,26.47,0,0,0-1.35,8.73,21.17,21.17,0,0,0,1.31,7.16,12.45,12.45,0,0,0,3,4.73,5.32,5.32,0,0,0,5.92,1.08q4.31-1.69,8.31-8.93a2.3,2.3,0,0,1,1.38-1,2.14,2.14,0,0,1,1.73.19,2.35,2.35,0,0,1,.88,3.15q-4.77,8.62-10.62,10.93A9.62,9.62,0,0,1,346.13,119q-4.23-3.69-5.54-10.7a30.65,30.65,0,0,1,1.08-14.77,22.33,22.33,0,0,1,3.73-6.85,14,14,0,0,1,5.42-4.39,6.92,6.92,0,0,1,6.93.62q3.08,2.08,4.46,7.62a2.26,2.26,0,0,1-.23,1.73,2.13,2.13,0,0,1-1.42,1,2.34,2.34,0,0,1-1.77-.23A2.15,2.15,0,0,1,357.75,91.63Z" transform="translate(0 -0.1)"/><rect class="cls-4" x="245.63" y="91.06" width="23.56" height="23.56" rx="11.78" ry="11.78"/><path class="cls-1" d="M252.55,107.27a1,1,0,0,1-.89-0.63,19.53,19.53,0,0,1-.16-7.91,0.93,0.93,0,0,1,1.83.35,17.21,17.21,0,0,0-.26,2.37,7.42,7.42,0,0,1,3.08-2.3q-0.21-.66-0.49-1.31a0.93,0.93,0,1,1,1.64-.87,14.32,14.32,0,0,1,.63,1.71l0.52,0a5.12,5.12,0,0,1,4,1.43,4.32,4.32,0,0,1,1.13,3.59,4.1,4.1,0,0,1-3.29,3.29,6.12,6.12,0,0,1-2.21.28,10.41,10.41,0,0,1-.92,1.88,0.92,0.92,0,0,1-.73.33,0.9,0.9,0,0,1-.59-0.21,0.94,0.94,0,0,1-.14-1.32,9.38,9.38,0,0,0,.56-1.2,5.8,5.8,0,0,1-1.62-1.2,0.93,0.93,0,0,1,.16-1.31,1,1,0,0,1,1.32.19,7.57,7.57,0,0,0,.61.47,9.19,9.19,0,0,0,.07-2,19.15,19.15,0,0,0-.24-1.9,5.53,5.53,0,0,0-2.11,1.67,4.43,4.43,0,0,0-1,3.55,0.93,0.93,0,0,1-.68,1.06Zm7.28-2.11a2.49,2.49,0,0,0,1.95-1.71,2.59,2.59,0,0,0-.63-2.09,3.33,3.33,0,0,0-2.58-.87l-0.16,0a17.67,17.67,0,0,1,.33,2.58,9.68,9.68,0,0,1-.12,2.25A4.3,4.3,0,0,0,259.83,105.15Z" transform="translate(0 -0.1)"/></svg>