<svg id="Layer_1" data-name="Layer 1" xmlns="http://www.w3.org/2000/svg" viewBox="0 0 510 510"><defs><style>.cls-1{fill:#db2774;}.cls-2{fill:#fffcf0;}</style></defs><title>logo-dot</title><rect class="cls-1" width="510" height="510" rx="255" ry="255"/><path class="cls-2" d="M150.85,349.5q-13.73-1-19.32-13.72A422.64,422.64,0,0,1,128,164.49q5.58-17.79,23.88-15.75,17.28,5.07,15.75,23.38A372.42,372.42,0,0,0,162,223.46Q190,188.9,228.61,173.64q-4.6-14.2-10.67-28.45-7.13-17.28,8.62-27.46,16.77-6.59,26.95,8.64a310,310,0,0,1,13.72,37.09l11.18-1q50.82-3.55,87.42,31,30,33,24.39,77.76-12.71,56.91-71.15,71.15-24.92,7.64-47.79,6.11a225.25,225.25,0,0,1-19.81,40.65,19.82,19.82,0,0,1-15.77,7.12,19.54,19.54,0,0,1-12.7-4.57q-13.22-13.25-3-28.47a203,203,0,0,0,12.2-25.91,125.57,125.57,0,0,1-35.07-25.93q-10.18-15.73,3.55-28.45,15.76-9.64,28.47,4.06a163.8,163.8,0,0,0,13.21,10.17,199,199,0,0,0,1.52-42.7,414.38,414.38,0,0,0-5.09-41.15Q212.35,225,193,249.38q-27.93,33.54-22.36,76.75,1.55,17.28-14.73,22.87A25.81,25.81,0,0,1,150.85,349.5ZM308.4,303.76q32-7.13,42.17-37.12,3.08-25.9-13.72-45.23-23.91-21.34-55.91-18.79a14.9,14.9,0,0,0-3.55.51A382.44,382.44,0,0,1,284.5,259,209.55,209.55,0,0,1,282,307.82,93.16,93.16,0,0,0,308.4,303.76Z" transform="translate(-1 -1)"/></svg>