<svg id="Layer_1" data-name="Layer 1" xmlns="http://www.w3.org/2000/svg" viewBox="0 0 298 75.74"><defs><style>.cls-1{fill:#141414;}.cls-2{fill:#db2774;}.cls-3{fill:#fffcf0;}</style></defs><title>logo</title><path class="cls-1" d="M25.72,44.44A43.88,43.88,0,0,1,22,52.1q-4.43,6.73-10.47,7.66a8.91,8.91,0,0,1-8.68-4Q0,51.5,1.54,44.18a40.47,40.47,0,0,1,5-12.52,31.89,31.89,0,0,1,8.6-9.88q6-4.26,11.07-1.87a5.79,5.79,0,0,1,2.13,1.53L28.87,22H29a2.32,2.32,0,0,1,1.36,1.28,2.66,2.66,0,0,1,.17.51,1.6,1.6,0,0,1,.13.38,3,3,0,0,1,0,.55v1.53q0.08,0.85.09,4.43,0.08,8.68.09,9.71a111.48,111.48,0,0,1-.77,16.35q-1.53,12-6.3,16.09a14.64,14.64,0,0,1-4.85,2.81,13.67,13.67,0,0,1-4.81.77q-2.26-.09-4.81-0.26a2.3,2.3,0,0,1-1.75-.94A2.74,2.74,0,0,1,7,73.26a2.26,2.26,0,0,1,.94-1.7A2.66,2.66,0,0,1,9.8,71a20,20,0,0,0,5.92.13,9,9,0,0,0,4.64-2.26Q23.68,66.06,25,56A88.37,88.37,0,0,0,25.72,44.44ZM25.38,25.62H25.3L24.78,25a3.22,3.22,0,0,0-.6-0.51q-2.47-1.11-6,1.45A26.69,26.69,0,0,0,11,34.3,35,35,0,0,0,6.56,45.2Q5.46,50.48,7.07,53a3.45,3.45,0,0,0,3.75,1.62q3.75-.51,6.81-5.36a46.54,46.54,0,0,0,4.51-9.71,65.09,65.09,0,0,0,2.72-9.79q0.26-1.45.43-3.66Z" transform="translate(-1 -0.63)"/><path class="cls-1" d="M43,20.68a2.39,2.39,0,0,1,1.15-1.36A2.89,2.89,0,0,1,45.81,19a17.16,17.16,0,0,1,9.2,4.9,23.28,23.28,0,0,1,5.53,8.73,31.28,31.28,0,0,1,1.87,10.22Q62.59,51.33,58.5,57a13.93,13.93,0,0,1-13.11,6,13.48,13.48,0,0,1-6.56-2.21,12,12,0,0,1-4.13-4.85,24,24,0,0,1-2-6.22A30.83,30.83,0,0,1,32.36,43a39.68,39.68,0,0,1,3.06-13.2q3-6.72,7.24-9A0.76,0.76,0,0,1,43,20.68Zm4.77,4.26a5.67,5.67,0,0,1-.94.09l-0.43,0a4.33,4.33,0,0,1-.51,0,2.19,2.19,0,0,0-.85.26q-2.73,1.36-4.94,6.47a33.52,33.52,0,0,0-2.64,11.41q-0.34,6.47,1.79,10.39a7.66,7.66,0,0,0,6.47,4.26A9.19,9.19,0,0,0,54.41,54q3-4.26,2.89-11.07a24.59,24.59,0,0,0-2.64-11A14.48,14.48,0,0,0,47.77,24.94Z" transform="translate(-1 -0.63)"/><path class="cls-1" d="M82.59,31.58q0-.08-0.6-3a8.25,8.25,0,0,0-.6-2A4.28,4.28,0,0,0,79,24.73a6.75,6.75,0,0,0-3.62-.13,5.1,5.1,0,0,0-2.85,1.58,3.52,3.52,0,0,0-.81,2.77q0.17,1.62,2.72,4.34,1.11,1.19,3.49,3.41t2.89,2.64q1.28,1.19,2.21,2.21T85.11,44a14.4,14.4,0,0,1,1.83,2.81,28.85,28.85,0,0,1,1.23,3,9.4,9.4,0,0,1,.51,3.36,14.24,14.24,0,0,1-.55,3.58,9.55,9.55,0,0,1-5.58,6.47,12.09,12.09,0,0,1-8.47.34,14.52,14.52,0,0,1-7.37-5.07,14.22,14.22,0,0,1-3-9.15,2.55,2.55,0,0,1,5.11,0,9.42,9.42,0,0,0,2,6,9.52,9.52,0,0,0,4.77,3.32,7.23,7.23,0,0,0,4.85-.13,4.79,4.79,0,0,0,2.81-3.36,7.09,7.09,0,0,0-.6-5.75A27.4,27.4,0,0,0,77.31,43q-0.43-.34-3-2.73l-3.58-3.4q-3.75-4-4.17-7.41A7.85,7.85,0,0,1,68.5,23a10.74,10.74,0,0,1,5.75-3.36,11.74,11.74,0,0,1,6.56.34,8.32,8.32,0,0,1,5,4.17A10.8,10.8,0,0,1,87,27.58c0,0.06.06,0.43,0.17,1.11a10.73,10.73,0,0,0,.34,1.53,2.62,2.62,0,0,1-.26,2,2.32,2.32,0,0,1-1.53,1.19,2.63,2.63,0,0,1-2-.26A2.32,2.32,0,0,1,82.59,31.58Z" transform="translate(-1 -0.63)"/><path class="cls-1" d="M98.94,37.28A53.15,53.15,0,0,1,102,31.92a34.24,34.24,0,0,1,5.79-7.32q3.91-3.58,7.58-3.24,4.94,0.43,7.07,6.9a39.44,39.44,0,0,1,1.7,11.84,133.38,133.38,0,0,1-1.28,20.77,2.59,2.59,0,0,1-1,1.66,2.59,2.59,0,0,1-3.58-.43,2.65,2.65,0,0,1-.55-1.92A140.13,140.13,0,0,0,119,40.26a39.07,39.07,0,0,0-1.36-10.39q-1.11-3.23-2.81-3.4-1.36-.17-3.58,2a30.74,30.74,0,0,0-5,6.22,68,68,0,0,0-4,7.37A36.35,36.35,0,0,0,100,47.84,77.49,77.49,0,0,0,99.2,58v0.17a2.28,2.28,0,0,0,.08.51c0.06,0.23.11,0.48,0.17,0.77a5.79,5.79,0,0,1-.09,1.79,2.58,2.58,0,0,1-1.62,1.87,2.54,2.54,0,0,1-2.3-.09,3.21,3.21,0,0,1-1.19-1.11l-0.17-.51A1.59,1.59,0,0,1,94,60.87a1.17,1.17,0,0,1-.09-0.51V55.16Q94,47.76,94,47q-0.09-8.68-.85-25.29L92.22,3.23a2.6,2.6,0,0,1,.68-1.79A2.37,2.37,0,0,1,94.64.63a2.51,2.51,0,0,1,1.83.64,2.56,2.56,0,0,1,.85,1.79q0.17,4.94.77,16.48T98.94,37.28Z" transform="translate(-1 -0.63)"/><path class="cls-1" d="M134.78,22a101.3,101.3,0,0,0-.94,21.37A36.41,36.41,0,0,0,136,54.31q1.62,3.83,4.26,4.09,1.53,0.17,3.15-2.13a24.61,24.61,0,0,0,3.32-7.75,94.2,94.2,0,0,0,2.89-16.77q0.17-1.36.3-3.53T150,26q0.17-1.36.26-2t0.17-.94a1.29,1.29,0,0,1,.34-0.68,2.55,2.55,0,0,1,1.87-1.28,2.43,2.43,0,0,1,2.21.85,2.32,2.32,0,0,1,.43.6,3.78,3.78,0,0,1,.17.43,0.65,0.65,0,0,0,.09.26v0.26a2.29,2.29,0,0,0,.09.51,14.38,14.38,0,0,0,.17,2l0.68,9a159.33,159.33,0,0,0,3.83,24.86,2.4,2.4,0,0,1-.3,1.92,2.5,2.5,0,0,1-1.58,1.15,2.4,2.4,0,0,1-1.92-.3A2.51,2.51,0,0,1,155.39,61q-1.79-7.49-2.81-14.81-0.43,2-.94,3.66a31.85,31.85,0,0,1-4,9.37q-3.41,4.77-8.09,4.26-5.45-.68-8.26-7.24a41.21,41.21,0,0,1-2.55-12.52,103.3,103.3,0,0,1,.94-22.39,2.43,2.43,0,0,1,1-1.7,2.68,2.68,0,0,1,1.92-.47,2.27,2.27,0,0,1,1.66,1A2.78,2.78,0,0,1,134.78,22Z" transform="translate(-1 -0.63)"/><path class="cls-1" d="M196.6,59.42V56.53a32.2,32.2,0,0,1,.26-4.43l0.09-.17V51.59q0.08-1.28.17-9.45Q197.36,24.26,196,7.06a2.55,2.55,0,0,1,.6-1.92,2.45,2.45,0,0,1,1.75-.89,2.5,2.5,0,0,1,1.87.6,2.42,2.42,0,0,1,.89,1.7q1.11,13.62,1.11,29.54,1.11-2.3,2.21-4.34,3.58-6.47,7.41-9.45,5.36-4.09,10.73-1.45,4.85,2.55,5.53,9.37a29.8,29.8,0,0,1-1,9.62q-2.81,11.07-10,17.28t-18.39,6.56a2.63,2.63,0,0,1-1.87-.72,2.31,2.31,0,0,1-.77-1.75A2.83,2.83,0,0,1,196.6,59.42Zm5.11-1.11a22.09,22.09,0,0,0,13.07-6.09,28.69,28.69,0,0,0,7.36-13.58,26,26,0,0,0,.85-8q-0.34-4-2.81-5.19t-5.19.94q-2.89,2.21-6,7.83A60.73,60.73,0,0,0,204.51,44,70.09,70.09,0,0,0,202,52.52c0,0.28,0,.85-0.13,1.7s-0.13,1.51-.13,2v2.13Z" transform="translate(-1 -0.63)"/><path class="cls-1" d="M232.61,57.46q0.08-5.79,0-8.34t-0.13-8.56q0-5.92-.26-10.17t-0.81-8.26a2.77,2.77,0,0,1,.51-1.87,2.26,2.26,0,0,1,1.66-1,2.68,2.68,0,0,1,1.92.47,2.44,2.44,0,0,1,1,1.7,159.92,159.92,0,0,1,1,17.62A71.22,71.22,0,0,1,242.83,30,25.71,25.71,0,0,1,249,23.58a10.68,10.68,0,0,1,4.94-2,6.33,6.33,0,0,1,5.62,2.21q2,2.13,3.06,7.58a76,76,0,0,1,1.28,10.39q0.51,7.15.51,18.48a2.55,2.55,0,0,1-5.11,0q0-11.58-.43-18.13a77.89,77.89,0,0,0-1.19-9.71q-0.85-4.09-1.87-5.19a1.61,1.61,0,0,0-1.36-.51A5.36,5.36,0,0,0,252,27.75a19.33,19.33,0,0,0-4.94,5.11q-8.6,12.43-9.37,24.86,0,2.38-.09,3.24v0.51a1.37,1.37,0,0,1-.17.6,2.35,2.35,0,0,1-.6,1,2.53,2.53,0,0,1-2,.68,2.47,2.47,0,0,1-1.7-.85,2.38,2.38,0,0,1-.6-0.94,1,1,0,0,0,0-.3,0.92,0.92,0,0,1,0-.3V60.27Q232.52,58.91,232.61,57.46Z" transform="translate(-1 -0.63)"/><path class="cls-1" d="M288,29.88q-1.11-4.17-2.89-5.45a2.88,2.88,0,0,0-2.81-.09,10.87,10.87,0,0,0-4.09,3.41,17.69,17.69,0,0,0-3.07,5.79,29.28,29.28,0,0,0-1.49,9.66,23.43,23.43,0,0,0,1.45,7.92,13.77,13.77,0,0,0,3.36,5.24,5.89,5.89,0,0,0,6.56,1.19q4.77-1.87,9.2-9.88a2.55,2.55,0,0,1,1.53-1.15,2.37,2.37,0,0,1,1.92.21,2.61,2.61,0,0,1,1,3.49q-5.28,9.54-11.75,12.09a10.64,10.64,0,0,1-11.75-2.13Q270.49,56.1,269,48.35A33.91,33.91,0,0,1,270.24,32a24.7,24.7,0,0,1,4.13-7.58,15.46,15.46,0,0,1,6-4.85,7.65,7.65,0,0,1,7.66.68q3.4,2.3,4.94,8.43a2.5,2.5,0,0,1-.26,1.92,2.36,2.36,0,0,1-1.57,1.15,2.59,2.59,0,0,1-2-.26A2.38,2.38,0,0,1,288,29.88Z" transform="translate(-1 -0.63)"/><rect class="cls-2" x="162.97" y="28.73" width="26.07" height="26.07" rx="13.04" ry="13.04"/><path class="cls-3" d="M171.63,47.17a1.1,1.1,0,0,1-1-.7,21.61,21.61,0,0,1-.18-8.76,1,1,0,0,1,2,.39,19,19,0,0,0-.29,2.62,8.22,8.22,0,0,1,3.4-2.55q-0.24-.73-0.55-1.45a1,1,0,1,1,1.82-1,15.85,15.85,0,0,1,.7,1.9l0.57-.05a5.67,5.67,0,0,1,4.47,1.59,4.78,4.78,0,0,1,1.25,4,4.54,4.54,0,0,1-3.64,3.64,6.77,6.77,0,0,1-2.44.31,11.52,11.52,0,0,1-1,2.08,1,1,0,0,1-.81.36,1,1,0,0,1-.65-0.23,1,1,0,0,1-.16-1.46,10.38,10.38,0,0,0,.62-1.32A6.42,6.42,0,0,1,174,45.23a1,1,0,0,1,.18-1.45,1,1,0,0,1,1.46.21,8.37,8.37,0,0,0,.68.52,10.17,10.17,0,0,0,.08-2.18,21.18,21.18,0,0,0-.26-2.1,6.12,6.12,0,0,0-2.34,1.84A4.91,4.91,0,0,0,172.65,46a1,1,0,0,1-.75,1.17Zm8.05-2.34a2.76,2.76,0,0,0,2.16-1.9,2.87,2.87,0,0,0-.7-2.31,3.69,3.69,0,0,0-2.86-1l-0.18,0a19.55,19.55,0,0,1,.36,2.86,10.71,10.71,0,0,1-.13,2.49A4.76,4.76,0,0,0,179.69,44.84Z" transform="translate(-1 -0.63)"/></svg>