<svg id="Layer_1" data-name="Layer 1" xmlns="http://www.w3.org/2000/svg" viewBox="0 0 1024 6.78"><defs><style>.cls-1{fill:#414141;}</style></defs><title>sketchy-rule</title><path class="cls-1" d="M421.81,3.84h6.12C425.92,3.83,423.91,3.83,421.81,3.84Z" transform="translate(0 -0.11)"/><path class="cls-1" d="M52.18,4.88l7.74,0C56.57,4.86,54.14,4.87,52.18,4.88Z" transform="translate(0 -0.11)"/><path class="cls-1" d="M691.35,5.5l-1.66,0Z" transform="translate(0 -0.11)"/><path class="cls-1" d="M766.3,1.26l-3.65-.09C763.27,1.22,764.63,1.25,766.3,1.26Z" transform="translate(0 -0.11)"/><path class="cls-1" d="M529.17,6.11h1.72l-1.13,0h-0.6Z" transform="translate(0 -0.11)"/><path class="cls-1" d="M0,0.9l1,0H0v0Z" transform="translate(0 -0.11)"/><path class="cls-1" d="M965.71,0.83h0Z" transform="translate(0 -0.11)"/><path class="cls-1" d="M967,4.92c10.68-.08,31.52-0.2,45.91-0.33,4.49,0,7.41.27,11.09,0.35V1c-4.82,0-9,0-12.1,0,1.46-.15,8.56.06,12.1,0v0c-22.24,0-49.92.37-64.39,0,1.91,0,4.08-.05,6.1-0.05-33.2,0-62.12.19-98.19,0.22-33.05-.33-10.66.43-43.21,0.39-0.22-.74-44.29,0-58-0.18l4.36,0.11c-16,.3-38.18,0-49.39-0.17-24.26,0-60.58,0-84.85.27l4.82-.16c-20,.2-32.55,0-52.62.16,0.55-.06,8-0.15.28-0.2C563.38,1.21,537.72.89,512,.91c-11.82,0-9.56,0-14.34.17-16,0-37.63,0-51.22-.15,15.47-.24,9.09-0.6-5.33-0.82-32.55,0-24.56.5-42.71,0.68,14.13-.62-22.7-0.21-19.51-0.54-41.36,0-83,.25-125.71.24,0.84,0.09,13.09.18,5.59,0.27-15.71.1-23.18-.15-25.33-0.27-20.29.06-32,.25-38.7,0.43,8.82-.06,9.62,0,8,0.2C182.47,1.17,188.07.75,168.85,1c-5.06-.33,21.38-0.17,19.51-0.49-17.9,0-29.12.12-42.19,0.28-3-.21,12-0.05,2.12-0.22C120.58,0.76,87.19,1,66.37,1.09l-5.6-.27C47.43,0.83,38.62.89,32.49,1,25.28,0.91,30.9.84,37.83,0.81,25.4,0.79,11,.89,0,1V5C3.76,5,8.31,5.08,16.14,5-3.6,4.61,34.81,4.38,39.92,4c15,0.16,24.27-.3,36.26,0-6.12.13-29.1,0.12-35,.39C40.4,4.65,46.3,5.07,23.6,5.21c27.27,0.13,16-.22,28.58-0.32l-9.34,0c4.25-.1-3.77-0.3,4.52-0.3C79.37,4.71,85,5,106.61,5.31c-4.82-.19,5.05-0.36,10.15-0.37,20.8,0.23-.27.54,12.49,0.93,7.24-.24,21.4-0.17,16.6-0.35,8.24,0,4,.1,9.85.17,5.32-.21,11.5-0.34,22.93-0.33-1,.11-2.64.28-13.59,0.22,12.28,0.09,16.78.48,11.46,0.69l-20-.14c-9.09.26,18.66,0.11,17.89,0.37-8.82.06-15.48-.1-21.1,0,5.62,0.27,22.93,0,33.08,0,16,0,10.14.32,10.4,0.46C224,6.45,165.3,6.39,190.66,6c9.6-.32,33.89-0.27,51-0.34C227,5.28,243.26,5.13,260.87,5c-23,0-5.87-.42-32.83-0.18l-0.53-.29c11.49,0,25.08.13,36.56,0.14-2.39.08,0.27,0.14-3.49,0.19l34.2-.13-3.48.19c21.08,0,47,.25,59.53.14-10.15,0-18.94-.26-8.29-0.34,6.16-.12,17.36-0.26,27-0.24,5.06,0.33,41.37.32,18.41,0.66,29.62-.17,18.68-0.23,47-0.44l-19,.09c-2.39-.26,13.36-0.71-4.8-0.87,21.35-.17,7.73-0.64,36.31-0.7,11.6,0.16-3.46.54-19.51,0.6,8.08,0,15.43.17,23.78,0C457.83,4,436.5,4.2,437.3,4.29c14.69,0-.28-0.14,13.59-0.22l2.59,0,2.61,0.15c36.55,1.14,15.58-.35,53.2.85l-19.11-.83c1,0.41-12.22.21-26.78-.21,9.38,0.06,8.45.47,26.19,0.32-5.08,0-14.12-.07-8-0.2,25.2,0,21,.22,30.42.09,6.87,0.05,14.45,1,18.89,1.1,20.71-.34,45,0.44,60.86-0.05,15,0.16,52.35-.31,80.6-0.17,4.16,0.23,32.57.16,19,.4,5.91-.07,23.52-0.12,18.11-0.32-2.41.08-5.07,0-10.12,0l4.51-.3c13.62,0.13,28.87-.26,41.93-0.08C750,5.07,721.24,5,730,5.27c12.55-.45,63.78-0.65,80.07-0.46,10.94,0.06,12.24.44,16.81,0.48l18.38,0c2.16,0.12,2.44.27,5.86,0.42,9.07,0.08,15.22,0,20.84-.11,24,0.24,11.18.55-1.12,0.8l-13.55-.13c-9.89.17-24.06,0.1-15.74,0.44,6.87,0,6.64-.18,9.07-0.26l8,0.2c8-.15,30.17-0.23,27.8-0.49,16.25,0.19,34.92,0,49.34.17-9.89-.17,2.66-0.28-0.26-0.49l-17.33-.08c13.87-.08,33.89-0.27,47-0.09-1.6.17-2.13,0.22,4.51,0.39-9.32-.23,24.28-0.3,4-0.59-7.46.09-14.42,0.13-24.06,0.1C943.28,5.17,958.48,5.13,967,4.92Z" transform="translate(0 -0.11)"/><path class="cls-1" d="M519.8,0.6L512,0.34l-15.4,0Z" transform="translate(0 -0.11)"/><path class="cls-1" d="M971.62,0.84h-4.14C969.27,0.84,970.85.85,971.62,0.84Z" transform="translate(0 -0.11)"/></svg>